<svg xmlns="http://www.w3.org/2000/svg" width="20" height="14" viewBox="0 0 20 14"><defs><style>.a{fill:#eceff1;}.b{fill:#f44336;}.c{fill:#3f51b5;}.d{fill:#fff;}</style></defs><g transform="translate(-3913 3087)"><rect class="a" width="19.999" height="14" transform="translate(3913 -3087)"/><rect class="b" width="19.999" height="1.556" transform="translate(3913.001 -3087)"/><rect class="b" width="19.999" height="1.556" transform="translate(3913.001 -3083.889)"/><rect class="b" width="19.999" height="1.556" transform="translate(3913.001 -3080.778)"/><rect class="b" width="19.999" height="1.556" transform="translate(3913.001 -3077.667)"/><rect class="b" width="19.999" height="1.556" transform="translate(3913.001 -3074.556)"/><rect class="c" width="9.545" height="7.778" transform="translate(3913.001 -3087)"/><path class="d" d="M3.432,12l.21.512.471.082-.341.4.081.562-.422-.265-.422.265.081-.562-.341-.4.471-.082Z" transform="translate(3910.592 -3097.963)"/><path class="d" d="M7.432,12l.21.512.471.082-.341.4.081.562-.422-.265-.422.265.081-.562-.341-.4.471-.082Z" transform="translate(3908.41 -3097.963)"/><path class="d" d="M11.432,12l.21.512.471.082-.341.4.081.562-.422-.265-.422.265.081-.562-.341-.4.471-.082Z" transform="translate(3906.228 -3097.963)"/><path class="d" d="M15.432,12l.21.512.471.082-.341.4.081.562-.422-.265-.422.265.081-.562-.341-.4.471-.082Z" transform="translate(3904.046 -3097.963)"/><path class="d" d="M19.182,12l.21.512.471.082-.341.4.081.562-.422-.265-.422.265.081-.562-.341-.4.471-.082Z" transform="translate(3902 -3097.963)"/><path class="d" d="M3.432,20l.21.512.471.082-.341.4.081.562-.422-.265-.422.265.081-.562-.341-.4.471-.082Z" transform="translate(3910.592 -3101.815)"/><path class="d" d="M7.432,20l.21.512.471.082-.341.4.081.562-.422-.265-.422.265.081-.562-.341-.4.471-.082Z" transform="translate(3908.41 -3101.815)"/><path class="d" d="M11.432,20l.21.512.471.082-.341.4.081.562-.422-.265-.422.265.081-.562-.341-.4.471-.082Z" transform="translate(3906.228 -3101.815)"/><path class="d" d="M15.432,20l.21.512.471.082-.341.4.081.562-.422-.265-.422.265.081-.562-.341-.4.471-.082Z" transform="translate(3904.046 -3101.815)"/><path class="d" d="M19.182,20l.21.512.471.082-.341.4.081.562-.422-.265-.422.265.081-.562-.341-.4.471-.082Z" transform="translate(3902 -3101.815)"/><path class="d" d="M4.432,16l.21.512.471.082-.341.4.081.562-.422-.265-.422.265.081-.562-.341-.4.471-.082Z" transform="translate(3910.046 -3099.889)"/><path class="d" d="M8.432,16l.21.512.471.082-.341.4.081.562-.422-.265-.422.265.081-.562-.341-.4.471-.082Z" transform="translate(3907.865 -3099.889)"/><path class="d" d="M12.432,16l.21.512.471.082-.341.4.081.562-.422-.265-.422.265.081-.562-.341-.4.471-.082Z" transform="translate(3905.683 -3099.889)"/><path class="d" d="M16.432,16l.21.512.471.082-.341.4.081.562-.422-.265-.422.265.081-.562-.341-.4.471-.082Z" transform="translate(3903.501 -3099.889)"/><path class="d" d="M20.182,16l.21.512.471.082-.341.4.081.562-.422-.265-.422.265.081-.562-.341-.4.471-.082Z" transform="translate(3901.455 -3099.889)"/></g></svg>